#N canvas 684 187 450 628 10;
#X obj 85 125 r Channel-A;
#X obj 85 162 * 2000;
#X obj 85 206 + 20;
#X obj 85 299 phasor~;
#X obj 154 300 phasor~;
#X obj 85 253 +;
#X obj 121 253 -;
#X obj 86 355 *~ 0.5;
#X obj 154 355 *~ 0.5;
#X obj 104 494 dac~;
#X obj 249 125 r Channel-B;
#X floatatom 40 22 5 0 100 0 - - -, f 5;
#X obj 134 192 bng 15 250 50 0 empty empty empty 17 7 0 10 -262144
-1 -1;
#X obj 113 422 *~ 1;
#X obj 36 50 / 100;
#X floatatom 199 28 5 0 100 0 - - -, f 5;
#X obj 195 56 / 100;
#X obj 188 166 * 25;
#X connect 0 0 1 0;
#X connect 1 0 2 0;
#X connect 2 0 5 0;
#X connect 2 0 6 0;
#X connect 3 0 7 0;
#X connect 4 0 8 0;
#X connect 5 0 3 0;
#X connect 6 0 4 0;
#X connect 7 0 13 0;
#X connect 8 0 13 0;
#X connect 10 0 17 0;
#X connect 11 0 14 0;
#X connect 12 0 6 0;
#X connect 12 0 5 0;
#X connect 13 0 9 0;
#X connect 13 0 9 1;
#X connect 14 0 1 0;
#X connect 15 0 16 0;
#X connect 16 0 17 0;
#X connect 17 0 5 1;
#X connect 17 0 6 1;
#X connect 17 0 12 0;
