#N canvas 2113 303 528 481 10;
#X obj 110 255 bp~, f 5;
#X obj 111 318 *~;
#X obj 45 110 inlet~;
#X obj 110 353 outlet~;
#X obj 115 103 inlet;
#X obj 366 113 inlet;
#X obj 230 109 inlet;
#X text 3 88 input signal;
#X text 351 75 amp -inf-0 db;
#X text 83 70 center freq 20-20k hz;
#X text 202 89 bandwidth 20-20k hz;
#X obj 259 248 expr pow(10 \, $f1/20);
#X floatatom 116 144 5 0 0 0 - - -, f 5;
#X floatatom 362 425 5 0 0 0 - - -, f 5;
#X floatatom 250 309 5 0 0 0 - - -, f 5;
#X obj 357 379 expr (20000-$f1)/1998;
#X obj 162 216 /;
#X connect 0 0 1 0;
#X connect 1 0 3 0;
#X connect 2 0 0 0;
#X connect 4 0 12 0;
#X connect 5 0 11 0;
#X connect 6 0 16 1;
#X connect 11 0 1 1;
#X connect 11 0 14 0;
#X connect 12 0 0 1;
#X connect 12 0 16 0;
#X connect 15 0 13 0;
#X connect 16 0 0 2;
#X coords 0 481 1 480 85 60 0;
