#N canvas 572 230 528 481 10;
#X obj 110 255 bp~, f 5;
#X obj 111 318 *~;
#X obj 45 110 inlet~;
#X obj 110 353 outlet~;
#X obj 135 108 inlet;
#X obj 338 114 inlet;
#X obj 146 228 * 10;
#X obj 242 111 inlet;
#X text 3 88 input signal;
#X text 229 77 bandwidth 0-200 hz;
#X text 323 76 amp -inf-0 db;
#X text 108 75 center freq 20-20k hz;
#X connect 0 0 1 0;
#X connect 1 0 3 0;
#X connect 2 0 0 0;
#X connect 4 0 0 1;
#X connect 5 0 1 1;
#X connect 6 0 0 2;
#X connect 7 0 6 0;
#X coords 0 481 1 480 85 60 0;
