#N canvas 395 155 1478 1018 10;
#X obj 478 480 bp~, f 5;
#X obj 618 427 / 127;
#X obj 609 255 vsl 15 128 0 127 0 0 empty empty empty 0 -9 0 10 -262144
-1 -1 0 1;
#X obj 585 255 vsl 15 128 0 127 0 0 empty empty empty 0 -9 0 10 -262144
-1 -1 0 1;
#X obj 478 512 *~;
#X obj 485 427 expr (($f1/127)*10);
#X obj 388 426 inlet~;
#X obj 477 582 outlet~;
#X obj 460 348 inlet;
#X connect 0 0 4 0;
#X connect 1 0 4 1;
#X connect 2 0 1 0;
#X connect 3 0 5 0;
#X connect 4 0 7 0;
#X connect 5 0 0 2;
#X connect 6 0 0 0;
#X connect 8 0 0 1;
